<svg width="256" height="256" viewBox="0 0 256 256" fill="none" xmlns="http://www.w3.org/2000/svg">
<g clip-path="url(#clip0_72_185)">
<path d="M0 128C0 57.3076 57.3076 0 128 0C198.692 0 256 57.3076 256 128V256H128C57.3076 256 0 198.692 0 128Z" fill="url(#paint0_linear_72_185)"/>
<g filter="url(#filter0_d_72_185)">
<path fill-rule="evenodd" clip-rule="evenodd" d="M-131.001 151H-171.001C-174.192 150.886 -177.311 150.01 -180.094 148.444C-182.878 146.878 -185.246 144.669 -187.001 142C-188.893 139.453 -190.152 136.492 -190.673 133.362C-191.195 130.232 -190.964 127.023 -190.001 124L-166.001 52C-163.001 43 -161.001 38 -147.001 38C-127.001 38 -105.001 45 -86.0006 51L-72.0006 55V153C-87.9477 169.761 -102.03 188.202 -114.001 208C-115.001 212 -119.001 215 -123.001 217C-126.76 218.533 -130.944 218.67 -134.796 217.386C-138.648 216.102 -141.913 213.482 -144.001 210C-146.001 206 -147.001 202 -147.001 197L-131.001 151ZM-23.0006 148H-51.0006V68C-51.0006 62.6957 -48.8935 57.6086 -45.1428 53.8579C-41.392 50.1071 -36.305 48 -31.0006 48C-25.6963 48 -20.6092 50.1071 -16.8585 53.8579C-13.1078 57.6086 -11.0006 62.6957 -11.0006 68V136C-11.0006 143 -16.0006 148 -23.0006 148Z" fill="white"/>
</g>
<g filter="url(#filter1_d_72_185)">
<path d="M119.794 41.6749C122.331 33.8372 133.419 33.8372 135.956 41.6749L152.277 92.0922C153.411 95.5965 156.675 97.9705 160.358 97.9705H213.239C221.46 97.9705 224.887 108.484 218.244 113.328L175.408 144.567C172.442 146.73 171.201 150.554 172.332 154.046L188.681 204.552C191.216 212.384 182.245 218.882 175.594 214.031L132.88 182.881C129.898 180.706 125.852 180.706 122.87 182.881L80.1557 214.031C73.5048 218.882 64.5341 212.384 67.0692 204.552L83.4184 154.046C84.5489 150.554 83.308 146.73 80.342 144.567L37.5055 113.328C30.8633 108.484 34.2897 97.9705 42.5106 97.9705H95.3918C99.0752 97.9705 102.339 95.5965 103.473 92.0922L119.794 41.6749Z" fill="white"/>
</g>
<g filter="url(#filter2_d_72_185)">
<path d="M-151.691 156.939H-174.845L-180.577 87.7045V45.5216H-145.959V87.7045L-151.691 156.939ZM-181.952 189.494C-181.952 184.297 -180.118 179.865 -176.45 176.197C-172.782 172.529 -168.35 170.695 -163.153 170.695C-158.11 170.695 -153.754 172.529 -150.086 176.197C-146.418 179.865 -144.584 184.297 -144.584 189.494C-144.584 194.384 -146.418 198.74 -150.086 202.561C-153.754 206.229 -158.11 208.063 -163.153 208.063C-168.35 208.063 -172.782 206.229 -176.45 202.561C-180.118 198.74 -181.952 194.384 -181.952 189.494ZM-53.6303 157.398H-84.5798C-84.5798 149.298 -83.2042 142.267 -80.4532 136.307C-77.7021 130.193 -74.3397 125.379 -70.3659 121.863C-66.3922 118.348 -62.4184 115.139 -58.4447 112.235C-54.3181 109.331 -50.8793 106.198 -48.1282 102.835C-45.3772 99.3201 -44.0016 95.4992 -44.0016 91.3726C-44.0016 85.8705 -46.0649 81.5146 -50.1915 78.305C-54.1653 74.9426 -59.591 73.2614 -66.4686 73.2614C-74.2633 73.2614 -80.3767 75.554 -84.809 80.1391C-89.2413 84.5713 -91.4574 90.9141 -91.4574 99.1672H-125.387C-125.387 81.8967 -119.961 68.2942 -109.11 58.3599C-98.2586 48.2727 -84.0448 43.2291 -66.4686 43.2291C-49.3509 43.2291 -35.7485 47.5085 -25.6613 56.0673C-15.574 64.4733 -10.5304 75.4012 -10.5304 88.8508C-10.5304 96.6454 -12.0588 103.447 -15.1155 109.254C-18.0194 115.062 -21.6111 119.724 -25.8905 123.239C-30.1699 126.754 -34.4494 130.04 -38.7288 133.097C-43.0082 136.154 -46.5999 139.745 -49.5038 143.872C-52.4077 147.846 -53.7832 152.354 -53.6303 157.398ZM-87.7893 189.494C-87.7893 184.297 -85.9553 179.865 -82.2872 176.197C-78.6191 172.529 -74.2633 170.695 -69.2197 170.695C-64.0232 170.695 -59.591 172.529 -55.9229 176.197C-52.2548 179.865 -50.4208 184.297 -50.4208 189.494C-50.4208 194.384 -52.3312 198.74 -56.1521 202.561C-59.8202 206.229 -64.1761 208.063 -69.2197 208.063C-74.2633 208.063 -78.6191 206.229 -82.2872 202.561C-85.9553 198.74 -87.7893 194.384 -87.7893 189.494Z" fill="white"/>
</g>
</g>
<defs>
<filter id="filter0_d_72_185" x="-223.046" y="22.6407" width="227.945" height="228.259" filterUnits="userSpaceOnUse" color-interpolation-filters="sRGB">
<feFlood flood-opacity="0" result="BackgroundImageFix"/>
<feColorMatrix in="SourceAlpha" type="matrix" values="0 0 0 0 0 0 0 0 0 0 0 0 0 0 0 0 0 0 127 0" result="hardAlpha"/>
<feOffset dx="-8.10069" dy="8.64073"/>
<feGaussianBlur stdDeviation="12"/>
<feComposite in2="hardAlpha" operator="out"/>
<feColorMatrix type="matrix" values="0 0 0 0 0 0 0 0 0 0 0 0 0 0 0 0 0 0 0.2 0"/>
<feBlend mode="plus-darker" in2="BackgroundImageFix" result="effect1_dropShadow_72_185"/>
<feBlend mode="normal" in="SourceGraphic" in2="effect1_dropShadow_72_185" result="shape"/>
</filter>
<filter id="filter1_d_72_185" x="1.89931" y="20.4374" width="235.75" height="227.905" filterUnits="userSpaceOnUse" color-interpolation-filters="sRGB">
<feFlood flood-opacity="0" result="BackgroundImageFix"/>
<feColorMatrix in="SourceAlpha" type="matrix" values="0 0 0 0 0 0 0 0 0 0 0 0 0 0 0 0 0 0 127 0" result="hardAlpha"/>
<feOffset dx="-8.10069" dy="8.64073"/>
<feGaussianBlur stdDeviation="12"/>
<feComposite in2="hardAlpha" operator="out"/>
<feColorMatrix type="matrix" values="0 0 0 0 0 0 0 0 0 0 0 0 0 0 0 0 0 0 0.2 0"/>
<feBlend mode="plus-darker" in2="BackgroundImageFix" result="effect1_dropShadow_72_185"/>
<feBlend mode="normal" in="SourceGraphic" in2="effect1_dropShadow_72_185" result="shape"/>
</filter>
<filter id="filter2_d_72_185" x="-214.054" y="27.8697" width="219.422" height="212.834" filterUnits="userSpaceOnUse" color-interpolation-filters="sRGB">
<feFlood flood-opacity="0" result="BackgroundImageFix"/>
<feColorMatrix in="SourceAlpha" type="matrix" values="0 0 0 0 0 0 0 0 0 0 0 0 0 0 0 0 0 0 127 0" result="hardAlpha"/>
<feOffset dx="-8.10069" dy="8.64073"/>
<feGaussianBlur stdDeviation="12"/>
<feComposite in2="hardAlpha" operator="out"/>
<feColorMatrix type="matrix" values="0 0 0 0 0 0 0 0 0 0 0 0 0 0 0 0 0 0 0.2 0"/>
<feBlend mode="plus-darker" in2="BackgroundImageFix" result="effect1_dropShadow_72_185"/>
<feBlend mode="normal" in="SourceGraphic" in2="effect1_dropShadow_72_185" result="shape"/>
</filter>
<linearGradient id="paint0_linear_72_185" x1="79.7288" y1="-2.02858e-06" x2="195.797" y2="256" gradientUnits="userSpaceOnUse">
<stop stop-color="#00D2FF"/>
<stop offset="1" stop-color="#2C7BE5"/>
</linearGradient>
<clipPath id="clip0_72_185">
<rect width="256" height="256" fill="white"/>
</clipPath>
</defs>
</svg>
