<svg width="16" height="16" viewBox="0 0 16 16" fill="none" xmlns="http://www.w3.org/2000/svg">
<path fill-rule="evenodd" clip-rule="evenodd" d="M8.00001 9.414L13.657 15.071C13.8456 15.2532 14.0982 15.3539 14.3604 15.3517C14.6226 15.3494 14.8734 15.2442 15.0588 15.0588C15.2442 14.8734 15.3494 14.6226 15.3517 14.3604C15.354 14.0982 15.2532 13.8456 15.071 13.657L9.41401 8L15.071 2.343C15.2532 2.15439 15.354 1.90179 15.3517 1.6396C15.3494 1.3774 15.2442 1.12659 15.0588 0.941178C14.8734 0.75577 14.6226 0.650601 14.3604 0.648323C14.0982 0.646044 13.8456 0.746839 13.657 0.928997L8.00001 6.586L2.34301 0.928997C2.15356 0.751342 1.90242 0.654362 1.64274 0.658579C1.38305 0.662796 1.1352 0.767878 0.951616 0.951591C0.768033 1.1353 0.663126 1.38323 0.659093 1.64292C0.65506 1.9026 0.752217 2.15367 0.930006 2.343L6.58601 8L0.929006 13.657C0.833496 13.7492 0.757314 13.8596 0.704905 13.9816C0.652496 14.1036 0.62491 14.2348 0.623756 14.3676C0.622602 14.5004 0.647904 14.6321 0.698185 14.755C0.748465 14.8778 0.822719 14.9895 0.916611 15.0834C1.0105 15.1773 1.12216 15.2515 1.24505 15.3018C1.36795 15.3521 1.49963 15.3774 1.63241 15.3762C1.76519 15.3751 1.89641 15.3475 2.01841 15.2951C2.14041 15.2427 2.25076 15.1665 2.34301 15.071L8.00001 9.414Z" fill="#152E4D"/>
</svg>
