<svg width="48" height="46" viewBox="0 0 48 46" fill="none" xmlns="http://www.w3.org/2000/svg">
<path d="M25.1147 1.81081L29.2871 14.7004C29.7107 16.0089 30.9293 16.8953 32.3046 16.8953H45.8242C46.9581 16.8953 47.4307 18.3455 46.5146 19.0136L35.563 27.0002C34.4556 27.8078 33.9922 29.2355 34.4144 30.5395L38.5942 43.4519C38.9438 44.5321 37.7065 45.4284 36.7891 44.7594L25.8688 36.7956C24.7553 35.9835 23.2447 35.9835 22.1312 36.7956L11.2109 44.7594C10.2935 45.4284 9.05617 44.5321 9.40584 43.4519L13.5856 30.5395C14.0078 29.2355 13.5444 27.8078 12.437 27.0002L1.48545 19.0136C0.569262 18.3455 1.04188 16.8953 2.17581 16.8953H15.6954C17.0707 16.8953 18.2893 16.0089 18.7129 14.7004L22.8853 1.81081C23.2353 0.729733 24.7647 0.729728 25.1147 1.81081Z" stroke="#FFBA08" stroke-width="2"/>
</svg>
