<svg width="48" height="46" viewBox="0 0 48 46" fill="none" xmlns="http://www.w3.org/2000/svg">
<path d="M21.9339 1.50283C22.5825 -0.500947 25.4175 -0.500943 26.0661 1.50284L30.2385 14.3925C30.5285 15.2884 31.3629 15.8953 32.3046 15.8953H45.8242C47.9259 15.8953 48.8019 18.5832 47.1038 19.8216L36.1523 27.8082C35.394 28.3611 35.0767 29.3387 35.3657 30.2316L39.5456 43.1439C40.1937 45.1461 37.9002 46.8074 36.1999 45.5674L25.2796 37.6036C24.5171 37.0475 23.4829 37.0475 22.7204 37.6035L11.8001 45.5674C10.0998 46.8074 7.80633 45.1461 8.45445 43.1439L12.6343 30.2316C12.9233 29.3387 12.606 28.3611 11.8477 27.8082L0.896225 19.8216C-0.801923 18.5832 0.0740561 15.8953 2.17581 15.8953H15.6954C16.6371 15.8953 17.4714 15.2884 17.7615 14.3925L21.9339 1.50283Z" fill="#FFBA08"/>
</svg>
